<mxfile host="Electron" modified="2023-12-24T21:38:27.262Z" agent="Mozilla/5.0 (Macintosh; Intel Mac OS X 10_15_7) AppleWebKit/537.36 (KHTML, like Gecko) draw.io/21.2.1 Chrome/112.0.5615.87 Electron/24.1.2 Safari/537.36" etag="lTjAhSnik2cUCX2qfIg1" version="21.2.1" type="device">
  <diagram name="Page-1" id="iRMYoeV2WN8iNWqU3HRv">
    <mxGraphModel dx="1546" dy="947" grid="1" gridSize="10" guides="1" tooltips="1" connect="1" arrows="1" fold="1" page="0" pageScale="1" pageWidth="1100" pageHeight="850" math="0" shadow="0">
      <root>
        <mxCell id="0" />
        <mxCell id="1" parent="0" />
        <mxCell id="sqB8z8xDgT_XmHM7QCqE-1" value="" style="swimlane;startSize=0;fillColor=default;strokeColor=default;swimlaneLine=1;rounded=0;" parent="1" vertex="1">
          <mxGeometry x="300" y="320" width="370" height="480" as="geometry" />
        </mxCell>
        <mxCell id="sqB8z8xDgT_XmHM7QCqE-5" value="Topic name" style="rounded=1;whiteSpace=wrap;html=1;" parent="sqB8z8xDgT_XmHM7QCqE-1" vertex="1">
          <mxGeometry x="115" y="20" width="130" height="45" as="geometry" />
        </mxCell>
        <mxCell id="sqB8z8xDgT_XmHM7QCqE-7" value="Json Consumer" style="text;html=1;align=center;verticalAlign=middle;resizable=0;points=[];autosize=1;strokeColor=none;fillColor=none;" parent="sqB8z8xDgT_XmHM7QCqE-1" vertex="1">
          <mxGeometry x="5" width="110" height="30" as="geometry" />
        </mxCell>
        <mxCell id="sqB8z8xDgT_XmHM7QCqE-33" value="" style="edgeStyle=orthogonalEdgeStyle;rounded=0;orthogonalLoop=1;jettySize=auto;html=1;entryX=0.5;entryY=0;entryDx=0;entryDy=0;" parent="sqB8z8xDgT_XmHM7QCqE-1" source="sqB8z8xDgT_XmHM7QCqE-10" target="sqB8z8xDgT_XmHM7QCqE-11" edge="1">
          <mxGeometry relative="1" as="geometry" />
        </mxCell>
        <mxCell id="sqB8z8xDgT_XmHM7QCqE-10" value="Get schema structure" style="rounded=1;whiteSpace=wrap;html=1;" parent="sqB8z8xDgT_XmHM7QCqE-1" vertex="1">
          <mxGeometry x="115" y="82.5" width="130" height="45" as="geometry" />
        </mxCell>
        <mxCell id="sqB8z8xDgT_XmHM7QCqE-35" value="" style="edgeStyle=orthogonalEdgeStyle;rounded=0;orthogonalLoop=1;jettySize=auto;html=1;entryX=0.5;entryY=0;entryDx=0;entryDy=0;" parent="sqB8z8xDgT_XmHM7QCqE-1" source="sqB8z8xDgT_XmHM7QCqE-11" target="sqB8z8xDgT_XmHM7QCqE-23" edge="1">
          <mxGeometry relative="1" as="geometry" />
        </mxCell>
        <mxCell id="kqyQdgIRJKbYj6kRRz94-7" style="edgeStyle=orthogonalEdgeStyle;rounded=0;orthogonalLoop=1;jettySize=auto;html=1;entryX=0;entryY=0.5;entryDx=0;entryDy=0;" edge="1" parent="sqB8z8xDgT_XmHM7QCqE-1" source="sqB8z8xDgT_XmHM7QCqE-11" target="kqyQdgIRJKbYj6kRRz94-2">
          <mxGeometry relative="1" as="geometry">
            <Array as="points">
              <mxPoint x="50" y="183" />
              <mxPoint x="50" y="423" />
              <mxPoint x="60" y="423" />
            </Array>
          </mxGeometry>
        </mxCell>
        <mxCell id="sqB8z8xDgT_XmHM7QCqE-11" value="Json deserializer" style="rounded=1;whiteSpace=wrap;html=1;" parent="sqB8z8xDgT_XmHM7QCqE-1" vertex="1">
          <mxGeometry x="115" y="160" width="130" height="45" as="geometry" />
        </mxCell>
        <mxCell id="sqB8z8xDgT_XmHM7QCqE-36" value="" style="edgeStyle=orthogonalEdgeStyle;rounded=0;orthogonalLoop=1;jettySize=auto;html=1;" parent="sqB8z8xDgT_XmHM7QCqE-1" source="sqB8z8xDgT_XmHM7QCqE-23" target="sqB8z8xDgT_XmHM7QCqE-25" edge="1">
          <mxGeometry relative="1" as="geometry" />
        </mxCell>
        <mxCell id="sqB8z8xDgT_XmHM7QCqE-23" value="Consumer and specify a group name" style="rounded=1;whiteSpace=wrap;html=1;" parent="sqB8z8xDgT_XmHM7QCqE-1" vertex="1">
          <mxGeometry x="115" y="240" width="130" height="45" as="geometry" />
        </mxCell>
        <mxCell id="sqB8z8xDgT_XmHM7QCqE-25" value="Consumer data from Kafka" style="rounded=1;whiteSpace=wrap;html=1;" parent="sqB8z8xDgT_XmHM7QCqE-1" vertex="1">
          <mxGeometry x="115" y="320" width="130" height="45" as="geometry" />
        </mxCell>
        <mxCell id="kqyQdgIRJKbYj6kRRz94-2" value="Sensor record" style="rounded=1;whiteSpace=wrap;html=1;" vertex="1" parent="sqB8z8xDgT_XmHM7QCqE-1">
          <mxGeometry x="115" y="400" width="130" height="45" as="geometry" />
        </mxCell>
        <mxCell id="kqyQdgIRJKbYj6kRRz94-4" value="&lt;b&gt;Step 5&lt;br&gt;&lt;/b&gt;" style="text;html=1;align=center;verticalAlign=middle;resizable=0;points=[];autosize=1;strokeColor=none;fillColor=none;" vertex="1" parent="sqB8z8xDgT_XmHM7QCqE-1">
          <mxGeometry x="120" y="285" width="60" height="30" as="geometry" />
        </mxCell>
        <mxCell id="kqyQdgIRJKbYj6kRRz94-5" value="&lt;b&gt;Step 6&lt;/b&gt;" style="text;html=1;align=center;verticalAlign=middle;resizable=0;points=[];autosize=1;strokeColor=none;fillColor=none;" vertex="1" parent="sqB8z8xDgT_XmHM7QCqE-1">
          <mxGeometry x="120" y="365" width="60" height="30" as="geometry" />
        </mxCell>
        <mxCell id="sqB8z8xDgT_XmHM7QCqE-2" value="" style="swimlane;startSize=0;" parent="1" vertex="1">
          <mxGeometry x="760" y="368" width="280" height="242" as="geometry" />
        </mxCell>
        <mxCell id="sqB8z8xDgT_XmHM7QCqE-17" value="Provide schema using file" style="ellipse;whiteSpace=wrap;html=1;" parent="sqB8z8xDgT_XmHM7QCqE-2" vertex="1">
          <mxGeometry x="95" y="18" width="120" height="80" as="geometry" />
        </mxCell>
        <mxCell id="sqB8z8xDgT_XmHM7QCqE-18" value="Dict to object&lt;br&gt;or&lt;br&gt;Dict" style="ellipse;whiteSpace=wrap;html=1;" parent="sqB8z8xDgT_XmHM7QCqE-2" vertex="1">
          <mxGeometry x="95" y="132" width="120" height="80" as="geometry" />
        </mxCell>
        <mxCell id="sqB8z8xDgT_XmHM7QCqE-19" value="Generic" style="text;html=1;align=center;verticalAlign=middle;resizable=0;points=[];autosize=1;strokeColor=none;fillColor=none;" parent="sqB8z8xDgT_XmHM7QCqE-2" vertex="1">
          <mxGeometry x="10" width="70" height="30" as="geometry" />
        </mxCell>
        <mxCell id="sqB8z8xDgT_XmHM7QCqE-6" style="edgeStyle=orthogonalEdgeStyle;rounded=0;orthogonalLoop=1;jettySize=auto;html=1;exitX=1;exitY=0.5;exitDx=0;exitDy=0;" parent="1" source="sqB8z8xDgT_XmHM7QCqE-3" target="sqB8z8xDgT_XmHM7QCqE-5" edge="1">
          <mxGeometry relative="1" as="geometry" />
        </mxCell>
        <mxCell id="sqB8z8xDgT_XmHM7QCqE-3" value="Topic name" style="rounded=1;whiteSpace=wrap;html=1;" parent="1" vertex="1">
          <mxGeometry x="90" y="342.5" width="120" height="40" as="geometry" />
        </mxCell>
        <mxCell id="sqB8z8xDgT_XmHM7QCqE-4" value="&lt;b&gt;Vehicle sensor/IOT sensor&lt;br&gt;Information&lt;/b&gt;" style="text;html=1;align=center;verticalAlign=middle;resizable=0;points=[];autosize=1;strokeColor=none;fillColor=none;" parent="1" vertex="1">
          <mxGeometry x="65" y="405" width="170" height="40" as="geometry" />
        </mxCell>
        <mxCell id="sqB8z8xDgT_XmHM7QCqE-8" value="&lt;b&gt;Step 1&lt;/b&gt;" style="text;html=1;align=center;verticalAlign=middle;resizable=0;points=[];autosize=1;strokeColor=none;fillColor=none;" parent="1" vertex="1">
          <mxGeometry x="210" y="338" width="60" height="30" as="geometry" />
        </mxCell>
        <mxCell id="sqB8z8xDgT_XmHM7QCqE-9" value="" style="swimlane;startSize=0;" parent="1" vertex="1">
          <mxGeometry x="335" y="60" width="290" height="220" as="geometry" />
        </mxCell>
        <mxCell id="sqB8z8xDgT_XmHM7QCqE-20" value="Kafka cluster&lt;br&gt;config" style="ellipse;whiteSpace=wrap;html=1;" parent="sqB8z8xDgT_XmHM7QCqE-9" vertex="1">
          <mxGeometry x="85" y="120" width="120" height="80" as="geometry" />
        </mxCell>
        <mxCell id="sqB8z8xDgT_XmHM7QCqE-37" value="Schema config" style="ellipse;whiteSpace=wrap;html=1;" parent="sqB8z8xDgT_XmHM7QCqE-9" vertex="1">
          <mxGeometry x="85" y="10" width="120" height="80" as="geometry" />
        </mxCell>
        <mxCell id="sqB8z8xDgT_XmHM7QCqE-39" value="Kafka config" style="text;html=1;align=center;verticalAlign=middle;resizable=0;points=[];autosize=1;strokeColor=none;fillColor=none;" parent="sqB8z8xDgT_XmHM7QCqE-9" vertex="1">
          <mxGeometry x="-5" y="10" width="90" height="30" as="geometry" />
        </mxCell>
        <mxCell id="sqB8z8xDgT_XmHM7QCqE-24" style="edgeStyle=orthogonalEdgeStyle;rounded=0;orthogonalLoop=1;jettySize=auto;html=1;entryX=1;entryY=0.5;entryDx=0;entryDy=0;" parent="1" source="sqB8z8xDgT_XmHM7QCqE-16" target="sqB8z8xDgT_XmHM7QCqE-10" edge="1">
          <mxGeometry relative="1" as="geometry" />
        </mxCell>
        <mxCell id="sqB8z8xDgT_XmHM7QCqE-16" value="Schema File to define the structure of data" style="whiteSpace=wrap;html=1;shape=mxgraph.basic.document" parent="1" vertex="1">
          <mxGeometry x="610" y="375" width="100" height="100" as="geometry" />
        </mxCell>
        <mxCell id="sqB8z8xDgT_XmHM7QCqE-21" style="edgeStyle=orthogonalEdgeStyle;rounded=0;orthogonalLoop=1;jettySize=auto;html=1;entryX=1;entryY=0.5;entryDx=0;entryDy=0;entryPerimeter=0;" parent="1" source="sqB8z8xDgT_XmHM7QCqE-17" edge="1">
          <mxGeometry relative="1" as="geometry">
            <mxPoint x="710" y="426" as="targetPoint" />
          </mxGeometry>
        </mxCell>
        <mxCell id="sqB8z8xDgT_XmHM7QCqE-22" value="&lt;b&gt;Step 2&lt;/b&gt;" style="text;html=1;align=center;verticalAlign=middle;resizable=0;points=[];autosize=1;strokeColor=none;fillColor=none;" parent="1" vertex="1">
          <mxGeometry x="700" y="390.5" width="60" height="30" as="geometry" />
        </mxCell>
        <mxCell id="hRjpMMNEh72pVKw2oZXB-1" style="edgeStyle=orthogonalEdgeStyle;rounded=0;orthogonalLoop=1;jettySize=auto;html=1;entryX=1;entryY=0.5;entryDx=0;entryDy=0;" parent="1" source="sqB8z8xDgT_XmHM7QCqE-18" target="sqB8z8xDgT_XmHM7QCqE-11" edge="1">
          <mxGeometry relative="1" as="geometry" />
        </mxCell>
        <mxCell id="hRjpMMNEh72pVKw2oZXB-3" value="&lt;font style=&quot;font-size: 12px;&quot;&gt;Provide data&lt;/font&gt;" style="edgeLabel;html=1;align=center;verticalAlign=middle;resizable=0;points=[];" parent="hRjpMMNEh72pVKw2oZXB-1" vertex="1" connectable="0">
          <mxGeometry x="0.4313" relative="1" as="geometry">
            <mxPoint x="-39" as="offset" />
          </mxGeometry>
        </mxCell>
        <mxCell id="hRjpMMNEh72pVKw2oZXB-2" value="&lt;b&gt;Step 3&lt;/b&gt;" style="text;html=1;align=center;verticalAlign=middle;resizable=0;points=[];autosize=1;strokeColor=none;fillColor=none;" parent="1" vertex="1">
          <mxGeometry x="700" y="510" width="60" height="30" as="geometry" />
        </mxCell>
        <mxCell id="hRjpMMNEh72pVKw2oZXB-5" style="edgeStyle=orthogonalEdgeStyle;rounded=0;orthogonalLoop=1;jettySize=auto;html=1;entryX=0;entryY=0.5;entryDx=0;entryDy=0;exitX=0;exitY=0.5;exitDx=0;exitDy=0;" parent="1" source="sqB8z8xDgT_XmHM7QCqE-20" target="sqB8z8xDgT_XmHM7QCqE-23" edge="1">
          <mxGeometry relative="1" as="geometry">
            <Array as="points">
              <mxPoint x="260" y="220" />
              <mxPoint x="260" y="583" />
            </Array>
          </mxGeometry>
        </mxCell>
        <mxCell id="hRjpMMNEh72pVKw2oZXB-7" value="&lt;b&gt;Step 4&lt;/b&gt;" style="text;html=1;align=center;verticalAlign=middle;resizable=0;points=[];autosize=1;strokeColor=none;fillColor=none;" parent="1" vertex="1">
          <mxGeometry x="210" y="228" width="60" height="30" as="geometry" />
        </mxCell>
        <mxCell id="bqNoKuBYXy_VpDzHtr6z-9" style="edgeStyle=orthogonalEdgeStyle;rounded=0;orthogonalLoop=1;jettySize=auto;html=1;" parent="1" source="sqB8z8xDgT_XmHM7QCqE-25" edge="1">
          <mxGeometry relative="1" as="geometry">
            <mxPoint x="480" y="720" as="targetPoint" />
          </mxGeometry>
        </mxCell>
        <mxCell id="kqyQdgIRJKbYj6kRRz94-15" style="edgeStyle=orthogonalEdgeStyle;rounded=0;orthogonalLoop=1;jettySize=auto;html=1;entryX=0;entryY=0.5;entryDx=0;entryDy=0;" edge="1" parent="1" source="kqyQdgIRJKbYj6kRRz94-2">
          <mxGeometry relative="1" as="geometry">
            <mxPoint x="840" y="742.5" as="targetPoint" />
          </mxGeometry>
        </mxCell>
        <mxCell id="kqyQdgIRJKbYj6kRRz94-16" value="&lt;b&gt;Step 7&lt;/b&gt;" style="text;html=1;align=center;verticalAlign=middle;resizable=0;points=[];autosize=1;strokeColor=none;fillColor=none;" vertex="1" parent="1">
          <mxGeometry x="670" y="720" width="60" height="30" as="geometry" />
        </mxCell>
        <mxCell id="kqyQdgIRJKbYj6kRRz94-18" value="" style="swimlane;startSize=0;" vertex="1" parent="1">
          <mxGeometry x="800" y="650" width="200" height="150" as="geometry" />
        </mxCell>
        <mxCell id="kqyQdgIRJKbYj6kRRz94-19" value="Insert many" style="ellipse;whiteSpace=wrap;html=1;" vertex="1" parent="kqyQdgIRJKbYj6kRRz94-18">
          <mxGeometry x="40" y="52.5" width="120" height="80" as="geometry" />
        </mxCell>
        <mxCell id="kqyQdgIRJKbYj6kRRz94-20" value="MongoDB operation" style="text;html=1;align=center;verticalAlign=middle;resizable=0;points=[];autosize=1;strokeColor=none;fillColor=none;" vertex="1" parent="kqyQdgIRJKbYj6kRRz94-18">
          <mxGeometry x="10" y="5" width="130" height="30" as="geometry" />
        </mxCell>
      </root>
    </mxGraphModel>
  </diagram>
</mxfile>
